<?xml version="1.0" standalone="no"?>
<!DOCTYPE svg PUBLIC "-//W3C//DTD SVG 20010904//EN"
 "http://www.w3.org/TR/2001/REC-SVG-20010904/DTD/svg10.dtd">
<svg version="1.0" xmlns="http://www.w3.org/2000/svg"
 width="3452.000000pt" height="936.000000pt" viewBox="0 0 3452.000000 936.000000"
 preserveAspectRatio="xMidYMid meet">

<g transform="translate(0.000000,936.000000) scale(0.100000,-0.100000)"
fill="#000000" stroke="none">
<path d="M11925 9184 c-8 -13 -15 -32 -15 -44 0 -11 -4 -20 -9 -20 -5 0 -12
-25 -16 -55 -3 -30 -11 -55 -16 -55 -5 0 -9 -16 -9 -35 0 -19 -4 -35 -9 -35
-5 0 -12 -23 -16 -52 -4 -29 -11 -60 -16 -70 -5 -10 -14 -28 -20 -39 -14 -28
0 -41 41 -37 20 2 37 11 44 23 6 11 13 22 16 25 8 8 30 44 39 65 5 12 16 27
25 34 9 7 14 17 11 21 -6 9 60 70 95 88 18 9 72 12 195 10 l170 -3 3 -644 c2
-590 1 -646 -15 -663 -29 -33 -74 -48 -140 -48 l-64 0 3 -37 3 -38 338 -3 337
-2 0 40 0 40 -63 0 c-66 0 -111 15 -140 48 -15 16 -16 77 -14 663 l2 644 170
3 c168 3 170 2 223 -25 33 -17 52 -34 52 -45 0 -10 4 -18 9 -18 5 0 12 -20 15
-45 4 -24 11 -47 17 -50 5 -4 9 -24 9 -46 0 -39 1 -40 33 -37 l32 3 3 114 c2
69 -1 118 -8 125 -5 5 -10 55 -10 113 0 101 0 103 -23 103 -22 0 -57 -27 -57
-44 0 -4 -8 -15 -17 -24 -15 -16 -64 -17 -554 -17 l-537 0 -26 24 c-14 14 -26
32 -26 42 0 28 -47 30 -65 3z"/>
<path d="M16538 9203 l-28 -4 0 -133 0 -133 38 -7 c48 -8 2196 -8 2245 0 l37
7 0 132 0 132 -37 7 c-41 6 -2211 6 -2255 -1z"/>
<path d="M19113 9203 l-33 -4 0 -133 0 -133 46 -7 c64 -8 2179 -7 2229 2 l40
7 3 120 c1 66 -2 127 -8 135 -8 13 -145 15 -1127 16 -615 1 -1133 -1 -1150 -3z"/>
<path d="M21675 9201 l-30 -6 0 -130 0 -130 30 -6 c39 -9 2178 -11 2239 -3
l46 7 0 132 0 132 -46 7 c-61 8 -2200 6 -2239 -3z"/>
<path d="M24243 9203 l-33 -4 0 -133 0 -133 46 -7 c64 -8 2179 -7 2229 2 l40
7 0 130 0 130 -40 7 c-41 7 -2184 8 -2242 1z"/>
<path d="M26815 9203 c-16 -3 -33 -10 -37 -16 -11 -17 -9 -229 2 -247 8 -13
142 -15 1087 -18 593 -2 1111 0 1151 3 l72 7 0 132 0 133 -52 7 c-59 6 -2175
6 -2223 -1z"/>
<path d="M29380 9201 l-35 -6 -3 -131 -3 -131 53 -6 c73 -9 2173 -8 2223 1
l40 7 0 130 0 130 -40 7 c-49 8 -2186 8 -2235 -1z"/>
<path d="M31960 9201 l-45 -6 0 -130 0 -130 50 -7 c65 -8 2123 -8 2195 0 l55
7 0 130 0 130 -55 7 c-69 8 -2139 7 -2200 -1z"/>
<path d="M7256 9131 c-3 -4 -38 -11 -78 -15 -40 -4 -77 -11 -82 -16 -6 -6 -20
-10 -33 -10 -13 0 -23 -4 -23 -9 0 -5 -17 -11 -38 -14 -21 -4 -44 -15 -52 -27
-8 -11 -19 -20 -25 -20 -22 0 -113 -107 -141 -165 -16 -33 -32 -61 -36 -63 -5
-2 -8 -8 -8 -13 0 -16 -35 -89 -42 -89 -5 0 -8 -6 -8 -12 -1 -7 -9 -31 -20
-53 -11 -22 -19 -46 -20 -53 0 -7 -5 -22 -12 -35 -25 -50 -28 -58 -28 -96 0
-22 -3 -42 -7 -44 -12 -8 3 -297 16 -310 6 -6 11 -23 11 -38 0 -15 5 -31 10
-34 6 -3 10 -14 10 -23 0 -9 11 -37 25 -62 13 -25 27 -53 31 -62 3 -10 10 -18
15 -18 5 0 9 -6 9 -13 0 -7 18 -31 40 -52 22 -21 40 -44 40 -49 0 -13 51 -66
64 -66 5 0 24 -13 41 -30 55 -54 141 -90 228 -97 43 -3 80 -10 83 -15 7 -11
374 -11 374 1 0 5 28 11 63 15 34 3 73 8 87 11 14 2 43 7 65 11 54 9 65 20 65
65 0 22 5 39 10 39 6 0 10 13 10 29 0 17 4 32 9 35 4 3 11 29 15 58 4 29 11
55 15 58 4 3 11 19 14 36 6 29 4 32 -25 38 -45 9 -46 9 -53 -24 -4 -16 -10
-30 -13 -30 -4 0 -15 -17 -25 -37 -25 -54 -36 -69 -95 -130 -38 -39 -64 -56
-88 -60 -19 -3 -34 -10 -34 -14 0 -5 -24 -9 -54 -9 -30 0 -58 -4 -61 -10 -3
-5 -44 -10 -90 -10 -46 0 -87 5 -90 10 -3 6 -17 10 -29 10 -63 0 -249 125
-277 185 -5 11 -18 34 -29 50 -11 17 -23 37 -26 45 -3 8 -12 29 -20 47 -8 17
-14 38 -14 46 0 9 -4 19 -10 22 -5 3 -10 19 -10 34 0 15 -6 33 -12 40 -10 9
-13 71 -13 241 0 170 3 232 13 242 6 6 12 24 12 39 0 15 5 31 10 34 6 3 10 13
10 22 0 16 30 84 40 93 4 3 10 12 13 20 4 8 16 29 27 45 11 17 23 37 26 45 4
8 36 44 71 79 59 58 69 65 114 69 27 2 49 8 49 13 0 5 18 9 39 9 22 0 43 5 46
10 3 6 42 10 86 10 46 0 79 -4 79 -10 0 -5 13 -10 29 -10 17 0 32 -4 36 -9 3
-5 19 -12 35 -16 17 -4 30 -11 30 -16 0 -5 6 -9 13 -9 16 0 137 -121 137 -138
0 -6 4 -12 9 -12 5 0 12 -12 16 -27 4 -16 11 -34 17 -40 11 -14 56 -17 74 -5
13 8 7 72 -7 72 -5 0 -9 16 -9 35 0 19 -4 35 -10 35 -5 0 -12 27 -16 60 -5 48
-12 65 -32 80 -13 11 -33 20 -43 20 -18 0 -27 3 -81 31 -13 7 -53 14 -91 17
-37 3 -70 9 -73 13 -7 12 -291 12 -298 0z"/>
<path d="M3353 9113 l-53 -4 0 -45 0 -44 70 0 c61 0 72 -3 95 -25 l25 -26 0
-642 c0 -353 -3 -651 -6 -662 -8 -29 -50 -45 -121 -45 l-63 0 0 -40 0 -41 388
4 c491 6 459 5 467 17 3 5 19 10 36 10 16 0 29 4 29 9 0 5 18 11 40 15 22 3
40 10 40 14 0 4 15 13 33 21 30 13 99 62 122 86 33 35 95 167 95 203 0 17 5
34 10 37 6 3 10 39 10 80 0 41 -4 77 -10 80 -5 3 -10 16 -10 27 0 26 -36 102
-56 118 -7 7 -14 18 -14 24 0 15 -62 76 -76 76 -6 0 -19 9 -29 20 -10 11 -33
22 -51 26 -19 3 -37 10 -40 15 -3 5 -18 9 -35 9 -36 0 -38 17 -3 26 30 8 104
54 104 65 0 4 11 10 25 13 16 4 25 13 25 26 0 11 4 20 10 20 5 0 17 17 27 38
9 20 22 40 27 44 15 10 15 216 0 226 -6 4 -14 14 -18 22 -25 53 -71 110 -89
110 -5 0 -22 11 -39 25 -16 14 -38 25 -49 25 -19 0 -34 6 -81 33 -17 9 -119
12 -403 13 -209 1 -404 -1 -432 -3z m567 -63 c0 -5 18 -10 39 -10 22 0 42 -4
46 -9 3 -5 19 -12 35 -16 17 -4 30 -11 30 -16 0 -5 5 -9 12 -9 16 0 88 -71 88
-86 0 -7 6 -14 13 -17 16 -5 17 -244 1 -255 -5 -4 -17 -23 -26 -42 -25 -53
-101 -110 -146 -110 -12 0 -24 -4 -27 -10 -4 -6 -57 -10 -126 -10 l-119 0 0
293 c0 162 3 297 7 300 11 11 173 8 173 -3z m104 -679 c3 -4 28 -11 54 -15 30
-4 56 -14 67 -26 10 -11 23 -20 30 -20 15 0 68 -58 85 -95 8 -16 19 -33 25
-37 15 -11 13 -300 -3 -306 -7 -2 -12 -19 -12 -38 0 -19 -4 -34 -10 -34 -5 0
-10 -5 -10 -11 0 -22 -34 -83 -63 -113 -26 -25 -39 -31 -91 -34 -34 -2 -65 -8
-71 -13 -12 -11 -185 -12 -185 0 0 4 -14 12 -32 17 -24 7 -35 18 -42 42 -5 18
-13 32 -17 32 -5 0 -9 149 -9 330 l0 330 139 0 c77 0 142 -4 145 -9z"/>
<path d="M8838 9113 l-208 -3 0 -44 0 -44 80 -3 c47 -3 84 -9 92 -17 18 -18
25 -1287 7 -1308 -21 -26 -72 -44 -124 -44 -28 0 -54 -2 -56 -5 -3 -2 -3 -20
-1 -40 l4 -35 319 0 319 0 0 40 0 40 -67 1 c-46 0 -78 6 -98 18 l-30 18 -3
306 -2 307 67 0 c67 -1 92 -10 106 -40 4 -8 16 -28 27 -45 11 -16 23 -38 26
-47 4 -10 10 -18 14 -18 4 0 11 -8 14 -17 9 -26 30 -60 51 -83 10 -11 14 -20
10 -20 -4 0 1 -8 12 -17 11 -10 23 -25 26 -33 4 -8 16 -28 27 -45 11 -16 23
-37 27 -45 3 -8 14 -22 23 -30 9 -8 20 -22 23 -30 4 -8 16 -28 27 -45 11 -16
23 -37 27 -45 3 -8 14 -22 23 -30 9 -8 20 -22 23 -30 4 -8 16 -28 27 -45 11
-16 23 -38 26 -47 6 -16 24 -18 195 -18 l189 0 0 40 c0 39 -1 40 -35 40 -27 0
-43 8 -65 30 -17 17 -30 35 -30 40 0 5 -10 15 -22 21 -28 15 -48 35 -48 47 0
5 -10 17 -21 28 -12 10 -25 28 -30 39 -13 29 -31 56 -54 79 -22 23 -41 51 -54
81 -5 11 -18 29 -30 39 -11 11 -21 23 -21 29 0 5 -10 18 -22 28 -21 19 -38 44
-56 84 -6 11 -19 29 -31 39 -11 11 -21 23 -21 28 0 6 -9 17 -19 26 -11 10 -22
27 -26 39 -5 18 1 25 32 39 21 10 40 21 43 25 3 3 16 10 30 14 29 8 130 103
130 122 0 7 5 13 10 13 6 0 10 9 10 19 0 11 6 21 12 23 17 6 18 254 1 289 -6
13 -14 31 -17 39 -20 47 -71 110 -89 110 -5 0 -22 11 -39 25 -16 14 -38 25
-49 25 -19 0 -31 5 -79 30 -27 15 -254 20 -632 13z m437 -83 c3 -5 15 -10 27
-10 32 0 90 -30 130 -68 28 -26 39 -46 44 -79 3 -24 10 -46 15 -49 12 -7 12
-180 0 -202 -6 -9 -13 -34 -16 -54 -3 -21 -10 -38 -15 -38 -6 0 -10 -6 -10
-14 0 -8 -15 -26 -32 -40 -18 -15 -38 -31 -45 -36 -7 -6 -20 -10 -31 -10 -10
0 -23 -5 -29 -11 -6 -6 -63 -13 -127 -16 l-116 -6 0 322 0 321 99 0 c56 0 103
-4 106 -10z"/>
<path d="M710 9066 l0 -44 80 -3 c47 -3 84 -9 92 -17 18 -18 25 -1287 7 -1308
-22 -26 -73 -44 -126 -44 l-53 0 0 -40 0 -40 320 0 320 0 0 40 0 40 -63 0
c-55 0 -67 4 -100 31 l-37 30 0 628 0 628 25 23 c20 19 40 25 98 29 l72 6 0
40 0 40 -317 3 -318 2 0 -44z"/>
<path d="M1994 9096 c-3 -8 -4 -27 -2 -43 3 -28 4 -28 85 -33 45 -3 83 -8 85
-10 27 -42 28 -65 28 -675 0 -593 -1 -626 -18 -642 -35 -34 -62 -43 -122 -43
l-61 0 3 -37 3 -38 320 0 320 0 3 38 3 37 -61 0 c-58 0 -82 8 -122 40 -17 14
-18 47 -18 645 l0 632 26 24 c21 19 39 25 97 29 l72 5 0 40 0 40 -318 3 c-268
2 -318 0 -323 -12z"/>
<path d="M5267 9103 c-4 -3 -7 -24 -7 -45 l0 -38 68 0 c37 0 76 -3 87 -6 44
-12 45 -24 45 -679 l0 -622 -23 -21 c-13 -12 -29 -22 -35 -22 -7 0 -12 -4 -12
-10 0 -6 -28 -10 -65 -10 l-65 0 0 -40 0 -40 320 0 320 0 0 40 0 40 -53 0
c-54 0 -104 18 -127 44 -8 11 -12 181 -13 643 l-2 628 24 25 c21 21 36 25 98
28 l73 4 0 44 0 44 -313 0 c-173 0 -317 -3 -320 -7z"/>
<path d="M10574 9096 c-3 -8 -4 -27 -2 -43 3 -28 4 -28 85 -33 45 -3 83 -8 85
-10 27 -42 28 -65 28 -677 l0 -628 -39 -27 c-32 -23 -50 -28 -100 -28 l-61 0
0 -40 0 -40 323 2 322 3 3 38 3 37 -61 0 c-58 0 -82 8 -122 40 -17 14 -18 47
-18 645 l0 632 26 24 c21 19 39 25 97 29 l72 5 0 40 0 40 -318 3 c-268 2 -318
0 -323 -12z"/>
<path d="M23098 8193 c-21 -3 -30 -15 -49 -61 -66 -168 -556 -1305 -581 -1349
-62 -111 -143 -145 -291 -124 -43 6 -86 15 -97 21 -49 26 -50 34 -71 677 -20
632 -19 663 21 703 19 19 78 40 115 40 44 1 65 12 65 36 l0 24 -204 0 -204 0
-31 -77 c-67 -167 -526 -1222 -532 -1223 -5 0 -448 963 -543 1183 l-51 117
-202 0 -203 0 0 -29 c0 -27 3 -28 53 -34 117 -12 169 -59 186 -167 8 -48 6
-186 -9 -540 -23 -564 -26 -602 -50 -658 -22 -48 -54 -67 -138 -78 -48 -6 -52
-9 -52 -34 l0 -27 255 1 255 0 0 27 c0 25 -4 28 -61 38 -34 6 -72 17 -85 26
-48 31 -49 56 -29 611 10 283 21 514 24 514 6 0 333 -712 488 -1060 42 -96 78
-177 79 -178 2 -2 20 -1 41 3 38 6 40 8 78 98 54 129 358 838 446 1041 66 151
74 166 81 140 13 -54 39 -1076 29 -1113 -15 -51 -37 -69 -100 -82 -67 -14 -72
-18 -65 -46 l6 -21 551 3 552 4 3 25 c2 14 0 26 -5 26 -42 0 -142 25 -156 38
-31 27 -17 89 64 295 l73 187 277 0 277 0 65 -197 c36 -109 68 -209 70 -222
13 -56 -19 -81 -120 -97 -38 -6 -43 -10 -43 -33 l0 -26 297 2 298 1 3 23 c5
27 -13 39 -58 39 -20 0 -56 10 -80 23 -36 17 -50 33 -72 77 -14 30 -119 323
-233 650 -195 563 -255 744 -255 776 0 14 -23 16 -82 7z m66 -599 c58 -171
106 -314 106 -317 0 -4 -106 -7 -236 -7 -220 0 -236 1 -231 18 2 9 55 143 117
297 62 154 116 291 121 304 5 13 11 22 13 20 2 -2 51 -144 110 -315z"/>
<path d="M29077 8191 c-24 -5 -33 -18 -66 -101 -74 -182 -504 -1186 -542
-1265 -49 -100 -100 -149 -170 -164 -27 -6 -59 -11 -71 -11 -16 0 -19 -4 -14
-22 3 -13 6 -25 6 -28 0 -3 120 -4 267 -3 l268 1 3 26 c2 14 0 26 -5 26 -42 0
-142 25 -156 38 -30 27 -17 88 63 295 l73 187 276 0 276 0 62 -182 c74 -217
83 -251 76 -278 -7 -28 -46 -46 -114 -55 -53 -7 -55 -8 -51 -33 l4 -27 296 1
297 1 3 23 c5 28 -12 40 -58 40 -19 0 -54 9 -77 19 -69 32 -50 -15 -366 896
-69 198 -142 414 -162 480 -20 66 -38 126 -41 133 -4 13 -30 14 -77 3z m70
-609 c56 -167 103 -305 103 -308 0 -2 -106 -4 -236 -4 -220 0 -236 1 -231 18
3 13 138 352 239 602 8 19 12 21 16 10 3 -8 52 -151 109 -318z"/>
<path d="M33540 8189 c-191 -21 -334 -109 -403 -248 -30 -61 -32 -73 -32 -166
0 -93 2 -105 33 -167 57 -115 129 -171 378 -293 230 -113 280 -150 324 -242
33 -68 34 -178 1 -250 -56 -127 -200 -193 -356 -164 -144 27 -241 113 -321
286 -46 98 -50 104 -74 98 -14 -3 -28 -8 -32 -12 -4 -3 2 -42 12 -86 10 -44
26 -132 35 -195 9 -63 20 -118 23 -121 10 -10 169 -47 248 -59 292 -42 539 61
641 268 37 73 38 80 38 182 0 99 -2 109 -33 172 -23 48 -52 84 -100 128 -65
60 -125 93 -424 234 -133 63 -199 159 -200 290 -1 62 3 81 28 126 50 92 125
133 244 133 184 1 298 -90 337 -266 l17 -79 30 6 c16 4 30 7 31 9 1 1 5 84 8
184 l6 182 -37 10 c-132 35 -314 52 -422 40z"/>
<path d="M27080 8170 c-41 -4 -173 -8 -292 -9 l-218 -1 0 -29 c0 -28 1 -28 68
-33 78 -6 123 -26 140 -63 17 -37 16 -1245 -1 -1294 -16 -46 -50 -69 -122 -82
-33 -7 -65 -13 -71 -15 -7 -1 -9 -14 -7 -28 l5 -25 202 1 c110 0 255 -4 320
-9 529 -43 936 220 1032 666 24 112 22 304 -5 405 -46 175 -172 326 -342 410
-187 92 -444 131 -709 106z m328 -96 c97 -20 159 -46 244 -101 189 -123 289
-352 275 -623 -21 -390 -247 -638 -619 -680 -153 -18 -266 7 -305 66 -17 26
-18 67 -21 661 l-3 632 27 17 c67 44 258 58 402 28z"/>
<path d="M30450 8170 c-41 -4 -173 -8 -292 -9 l-218 -1 0 -29 c0 -28 1 -28 68
-33 89 -7 128 -27 141 -76 16 -54 13 -1213 -2 -1271 -16 -58 -48 -80 -136 -94
-72 -12 -84 -22 -62 -56 7 -11 35 -13 144 -8 75 3 215 0 314 -8 118 -8 214 -9
279 -4 354 30 624 204 758 490 61 128 71 182 71 379 -1 159 -3 181 -24 239
-105 286 -347 444 -736 481 -119 11 -187 11 -305 0z m385 -110 c280 -89 435
-291 461 -602 13 -160 -30 -354 -104 -477 -80 -132 -221 -241 -368 -284 -96
-28 -233 -40 -315 -28 -83 13 -116 32 -141 82 -17 31 -18 84 -18 656 l0 623
26 17 c52 33 114 43 254 39 104 -3 151 -9 205 -26z"/>
<path d="M16690 8130 c0 -29 2 -30 43 -30 63 0 114 -17 137 -47 20 -26 20 -32
18 -674 l-3 -649 -30 -30 c-23 -23 -46 -33 -93 -42 -57 -11 -62 -14 -62 -37
l0 -26 290 -1 290 -1 0 27 c0 25 -4 28 -66 38 -82 14 -110 32 -123 79 -7 23
-11 160 -11 336 l0 297 446 0 446 0 -4 -307 c-3 -208 -8 -317 -16 -335 -16
-38 -65 -66 -129 -74 -51 -6 -54 -8 -51 -33 l3 -26 293 -1 292 -1 0 27 c0 26
-3 28 -57 35 -73 9 -118 27 -132 54 -8 14 -11 210 -9 665 3 638 3 645 24 673
22 29 62 47 127 58 31 5 37 10 37 30 l0 25 -290 0 -290 0 0 -29 c0 -27 2 -28
58 -34 82 -7 119 -28 131 -75 6 -21 11 -147 11 -294 l0 -258 -446 0 -446 0 4
268 c4 307 7 319 80 345 24 9 60 18 81 22 31 5 37 10 37 30 l0 25 -295 0 -295
0 0 -30z"/>
<path d="M18517 8134 c-5 -29 -3 -30 72 -39 30 -3 70 -12 88 -20 63 -26 63
-29 63 -568 0 -307 4 -505 11 -543 32 -175 156 -309 344 -371 70 -23 97 -26
215 -27 155 -1 221 13 339 70 92 46 174 125 223 219 62 120 61 107 67 640 5
429 8 494 22 520 27 48 52 65 115 76 32 6 69 13 82 15 16 3 22 11 22 29 l0 25
-300 0 -300 0 0 -29 c0 -27 2 -28 63 -34 98 -10 134 -24 164 -64 l28 -36 0
-481 c0 -472 0 -482 -22 -539 -69 -182 -194 -274 -386 -285 -210 -11 -372 69
-450 224 -46 91 -49 128 -45 619 3 436 4 462 23 492 23 39 67 62 134 70 62 7
72 13 64 41 l-5 22 -313 0 -313 0 -5 -26z"/>
<path d="M23910 8130 c0 -29 2 -30 43 -30 86 -1 170 -65 196 -149 8 -27 11
-205 11 -592 -1 -495 -3 -559 -18 -604 -22 -63 -61 -91 -142 -100 -57 -7 -60
-8 -60 -35 l0 -27 270 0 270 1 0 27 c0 26 -3 28 -57 34 -81 10 -119 28 -140
67 -16 30 -18 69 -21 453 -1 231 -1 476 0 544 l3 123 121 -143 c67 -79 269
-317 449 -529 281 -329 425 -505 480 -583 10 -14 20 -16 54 -11 l41 7 0 655
c0 447 4 676 11 721 16 90 49 124 138 139 35 6 65 13 67 15 2 1 1 13 -3 25
l-5 22 -262 -2 -261 -3 -3 -26 c-3 -25 0 -26 57 -32 94 -10 126 -27 145 -78
15 -39 16 -101 14 -563 l-3 -519 -525 611 -525 611 -172 1 -173 0 0 -30z"/>
<path d="M25782 8133 c3 -26 7 -28 60 -34 32 -4 71 -12 88 -19 62 -25 60 -9
59 -682 0 -439 -4 -624 -12 -652 -16 -51 -49 -74 -125 -89 -57 -11 -62 -14
-62 -38 l0 -26 298 1 297 1 3 26 c3 24 0 26 -75 37 -66 10 -82 17 -105 42
l-28 30 0 625 c0 710 -2 688 74 725 23 11 51 20 62 20 43 0 64 12 64 36 l0 24
-301 0 -300 0 3 -27z"/>
<path d="M31730 8131 c0 -27 2 -28 65 -34 86 -8 121 -27 135 -75 8 -25 10
-228 8 -652 -2 -513 -5 -620 -17 -643 -20 -38 -74 -64 -149 -73 -58 -6 -62 -8
-62 -33 l0 -26 569 -3 569 -2 7 52 c7 51 47 256 60 310 6 23 3 26 -24 30 -31
4 -32 3 -78 -91 -92 -188 -146 -216 -418 -216 -144 0 -175 3 -203 18 -58 32
-62 53 -62 373 l0 287 188 -7 c103 -3 228 -9 279 -13 l91 -6 7 56 c12 96 34
90 -285 81 l-280 -7 0 300 c0 219 3 302 12 311 19 19 380 16 444 -3 77 -23
120 -78 144 -185 20 -94 19 -91 52 -88 37 4 34 -10 42 206 l6 162 -550 0 -550
0 0 -29z"/>
<path d="M9930 6820 c-25 -4 -57 -13 -71 -18 -14 -6 -68 -13 -120 -17 -52 -4
-106 -14 -121 -21 -14 -7 -59 -19 -100 -25 -40 -6 -84 -17 -98 -24 -14 -7 -50
-18 -80 -23 -30 -6 -68 -18 -85 -26 -16 -9 -41 -16 -55 -16 -14 0 -38 -9 -55
-20 -16 -11 -39 -20 -51 -20 -12 0 -42 -11 -68 -25 -26 -14 -54 -25 -63 -25
-8 0 -32 -9 -52 -19 -20 -10 -63 -31 -96 -46 -113 -51 -190 -88 -195 -95 -3
-4 -16 -11 -30 -15 -14 -4 -34 -15 -45 -25 -11 -10 -30 -21 -43 -25 -13 -4
-49 -24 -80 -44 -31 -21 -67 -41 -79 -45 -13 -4 -23 -11 -23 -15 0 -5 -13 -14
-29 -21 -16 -6 -37 -20 -47 -31 -9 -10 -25 -19 -35 -19 -9 0 -19 -4 -21 -9 -3
-8 -186 -142 -227 -166 -9 -5 -48 -35 -86 -66 -39 -30 -78 -60 -88 -65 -10 -6
-37 -28 -60 -50 -23 -22 -67 -60 -97 -84 -111 -91 -168 -142 -310 -276 -41
-40 -97 -91 -125 -114 -73 -62 -71 -70 17 -71 67 0 117 -7 190 -25 22 -5 40 2
89 35 34 23 65 41 70 41 5 0 9 5 9 11 0 5 15 17 33 25 17 8 57 32 87 54 30 22
60 40 66 40 6 0 19 9 29 20 10 11 26 20 35 20 10 0 24 7 31 16 8 9 32 25 54
35 22 10 47 23 55 28 33 19 127 59 153 65 15 4 27 11 27 16 0 5 17 12 38 16
20 3 46 14 57 24 11 10 37 20 58 23 20 3 50 15 66 26 16 12 39 21 51 21 13 0
37 8 54 19 17 10 50 21 74 25 24 4 54 13 67 22 12 8 51 19 85 25 35 5 74 16
89 23 14 7 61 16 103 20 43 4 97 14 120 22 40 14 335 35 503 35 115 1 483 -18
494 -25 15 -10 178 -36 223 -36 21 0 60 -9 88 -20 28 -11 72 -20 97 -20 26 0
65 -8 87 -19 23 -10 70 -24 106 -31 36 -6 70 -16 77 -21 6 -6 39 -14 73 -20
34 -5 72 -16 83 -23 12 -8 42 -17 66 -21 24 -4 58 -16 75 -26 17 -10 42 -19
56 -19 14 0 40 -9 58 -20 18 -11 45 -20 61 -20 16 0 39 -8 52 -19 13 -10 39
-22 58 -26 19 -4 48 -16 65 -26 17 -10 40 -19 51 -19 11 0 38 -12 60 -25 22
-14 49 -25 61 -25 12 0 31 -9 44 -20 13 -11 35 -20 50 -20 15 0 35 -9 44 -19
10 -10 32 -22 51 -25 18 -4 44 -15 58 -26 14 -11 32 -20 41 -20 9 0 34 -11 56
-25 22 -14 45 -25 51 -25 6 0 23 -8 37 -19 15 -10 38 -22 52 -26 14 -4 32 -13
40 -20 8 -7 26 -16 40 -20 14 -4 32 -13 40 -20 8 -7 26 -16 40 -20 14 -4 39
-18 56 -31 17 -13 38 -24 47 -24 9 0 18 -4 21 -9 3 -5 25 -18 48 -30 24 -12
50 -26 58 -31 8 -6 26 -15 40 -21 14 -5 41 -20 62 -32 78 -47 169 -97 177 -97
4 0 16 -9 26 -20 10 -11 23 -20 29 -20 9 0 44 -21 118 -71 25 -17 58 -17 58 0
0 6 46 78 100 156 8 12 36 52 62 91 26 38 61 87 78 109 16 22 33 47 36 55 4 8
24 38 44 65 20 28 45 65 54 83 9 17 20 32 24 32 4 0 12 8 17 19 18 34 90 143
103 157 7 7 37 50 67 94 53 79 66 110 45 110 -5 0 -18 8 -28 18 -29 28 -90 72
-100 72 -5 0 -15 7 -23 16 -7 8 -29 24 -48 35 -49 26 -71 41 -93 62 -10 9 -23
17 -29 17 -6 0 -25 11 -43 25 -18 14 -38 25 -44 25 -7 0 -12 4 -12 9 0 5 -12
16 -27 24 -35 17 -125 67 -178 97 -80 46 -188 100 -200 100 -7 0 -15 7 -19 15
-3 8 -12 15 -21 15 -8 0 -39 12 -68 26 -70 36 -126 60 -164 75 -18 6 -33 15
-33 20 0 4 -17 11 -37 15 -21 4 -46 13 -55 21 -9 8 -36 19 -60 24 -23 6 -50
16 -58 24 -8 7 -36 16 -62 20 -27 4 -48 11 -48 15 0 11 -48 30 -76 30 -14 0
-35 7 -47 15 -12 8 -49 21 -82 28 -33 8 -73 22 -90 31 -16 9 -48 16 -70 16
-22 0 -52 8 -65 17 -14 10 -59 23 -100 30 -41 6 -93 18 -115 27 -22 8 -59 15
-81 16 -23 0 -68 8 -100 19 -33 10 -97 21 -144 25 -102 7 -168 18 -195 33 -24
13 -894 16 -965 3z"/>
<path d="M3157 6684 c-11 -11 -106 -25 -234 -33 -67 -4 -128 -13 -135 -18 -7
-6 -53 -16 -103 -23 -49 -6 -111 -21 -137 -31 -26 -10 -67 -19 -93 -19 -29 0
-56 -7 -73 -19 -15 -10 -47 -22 -70 -25 -24 -4 -61 -15 -83 -26 -21 -11 -49
-20 -61 -20 -13 0 -45 -12 -73 -25 -27 -14 -57 -25 -65 -25 -8 0 -28 -9 -45
-20 -16 -11 -40 -20 -51 -20 -12 0 -27 -7 -34 -15 -7 -8 -30 -20 -51 -27 -22
-6 -44 -17 -50 -25 -6 -7 -17 -13 -23 -13 -7 0 -27 -11 -46 -25 -19 -14 -40
-25 -48 -25 -8 0 -27 -11 -44 -25 -16 -14 -35 -25 -42 -25 -7 0 -21 -9 -31
-20 -10 -11 -24 -20 -32 -20 -7 0 -13 -3 -13 -7 0 -5 -17 -19 -38 -33 -120
-79 -338 -297 -419 -417 -30 -46 -59 -85 -63 -88 -5 -3 -11 -19 -15 -35 -4
-17 -11 -30 -16 -30 -8 0 -69 -120 -69 -136 0 -4 -9 -27 -21 -51 -35 -72 -19
-84 25 -18 64 97 126 167 195 222 36 29 73 58 81 65 31 26 96 65 120 73 14 4
36 16 49 26 13 11 30 19 37 19 7 0 34 11 60 25 26 14 58 25 71 25 13 0 34 7
48 16 55 36 310 46 650 25 99 -6 186 -16 210 -25 22 -8 74 -18 115 -21 41 -4
100 -16 130 -26 30 -10 70 -19 90 -19 19 0 54 -9 78 -20 24 -11 64 -22 90 -26
25 -3 62 -15 81 -25 20 -10 49 -19 66 -19 16 0 45 -9 63 -20 18 -11 40 -20 50
-20 9 0 40 -11 67 -25 28 -13 57 -25 65 -25 15 0 58 -19 153 -66 26 -13 55
-24 66 -24 10 0 30 -9 44 -20 14 -11 35 -20 47 -20 12 0 36 -11 54 -25 18 -14
40 -25 48 -25 8 0 27 -9 41 -20 14 -11 35 -20 46 -20 12 0 21 -4 21 -9 0 -5
19 -19 43 -31 23 -12 65 -34 92 -50 28 -15 65 -35 83 -44 18 -8 40 -22 48 -31
9 -8 22 -15 30 -15 8 0 27 -11 42 -25 15 -14 32 -25 39 -25 6 0 39 -18 72 -40
33 -22 63 -40 66 -40 8 0 93 -59 113 -77 7 -7 18 -13 23 -13 6 0 25 -10 42
-23 18 -12 39 -27 48 -32 33 -20 204 -135 215 -143 6 -5 41 -29 77 -52 37 -24
67 -46 67 -50 0 -4 8 -10 18 -14 18 -6 73 -44 110 -76 13 -11 30 -20 37 -20 7
0 15 -7 19 -15 3 -8 16 -20 28 -25 13 -6 43 -26 68 -45 25 -19 54 -39 65 -45
11 -6 40 -26 65 -45 25 -19 68 -50 97 -70 29 -19 58 -41 65 -48 8 -6 21 -16
30 -22 9 -5 49 -32 89 -60 39 -27 79 -54 88 -60 9 -5 18 -12 21 -15 3 -3 34
-25 70 -50 96 -65 124 -84 130 -91 3 -4 19 -15 36 -25 17 -11 56 -36 86 -56
30 -21 59 -38 64 -38 5 0 15 -9 22 -20 7 -11 20 -20 30 -20 10 0 46 -20 80
-45 34 -25 65 -45 69 -45 3 0 14 -7 24 -16 10 -9 31 -23 48 -32 102 -56 180
-104 191 -117 7 -8 20 -15 30 -15 9 0 28 -8 41 -18 13 -10 35 -23 49 -30 14
-7 48 -26 75 -42 48 -28 73 -42 140 -76 17 -8 37 -19 45 -25 8 -5 25 -14 38
-19 12 -6 32 -14 45 -20 12 -5 29 -14 37 -19 35 -21 123 -61 135 -61 7 0 23
-9 37 -19 13 -11 38 -23 54 -27 16 -4 41 -15 56 -25 14 -11 35 -19 47 -19 11
0 35 -9 53 -20 18 -11 40 -20 49 -20 9 0 37 -11 63 -25 26 -14 57 -25 69 -25
12 0 36 -9 52 -20 17 -11 40 -20 53 -20 12 0 49 -11 82 -25 33 -14 70 -25 82
-25 13 0 38 -9 56 -20 18 -11 50 -20 71 -20 22 0 61 -9 87 -20 26 -11 76 -25
111 -30 35 -5 70 -14 78 -20 7 -6 48 -15 91 -20 44 -5 97 -15 119 -21 22 -6
78 -15 125 -21 47 -5 128 -18 180 -28 101 -21 396 -35 725 -35 238 0 827 15
837 22 13 7 106 22 248 37 69 8 152 21 185 30 33 9 78 16 100 16 22 0 58 9 80
20 22 11 49 19 60 20 26 0 171 47 215 70 19 9 49 21 67 24 17 4 37 14 43 21 7
8 27 17 45 21 19 3 41 15 51 25 9 10 21 19 27 19 32 0 291 193 412 308 50 47
92 89 94 95 4 11 -72 4 -149 -14 -74 -18 -627 -18 -720 0 -36 6 -114 16 -173
21 -60 6 -132 16 -160 24 -29 8 -83 17 -122 21 -38 4 -81 14 -94 22 -13 9 -54
18 -90 21 -36 2 -82 12 -101 22 -19 9 -62 20 -95 24 -32 4 -66 13 -75 20 -8 8
-35 17 -60 21 -25 4 -63 15 -85 24 -23 10 -57 21 -76 25 -19 3 -53 15 -74 26
-22 11 -48 20 -60 20 -11 1 -38 9 -60 20 -22 11 -47 19 -55 20 -9 0 -33 9 -55
20 -21 11 -55 23 -74 26 -20 4 -47 15 -61 25 -14 9 -42 20 -62 24 -21 4 -42
13 -48 20 -6 8 -26 17 -43 20 -18 4 -46 16 -63 26 -17 10 -40 19 -50 19 -11 0
-37 11 -59 25 -22 13 -48 25 -58 25 -11 0 -30 9 -44 20 -14 11 -33 20 -42 20
-9 0 -27 9 -41 20 -14 11 -32 20 -41 20 -8 0 -30 11 -49 25 -19 14 -41 25 -51
25 -9 0 -27 8 -40 19 -13 10 -35 22 -49 26 -14 4 -32 13 -40 19 -19 16 -118
63 -150 72 -14 4 -36 15 -49 25 -13 11 -33 19 -43 19 -11 0 -31 9 -45 20 -14
11 -35 20 -47 20 -12 0 -38 11 -58 25 -20 14 -41 25 -47 25 -13 0 -111 50
-140 72 -13 10 -33 18 -45 18 -12 0 -29 9 -39 20 -9 11 -25 20 -36 20 -10 0
-29 9 -43 19 -13 11 -37 23 -51 26 -15 4 -27 11 -27 16 0 5 -17 17 -37 28 -21
10 -58 29 -83 42 -25 13 -47 26 -50 30 -3 4 -21 14 -40 23 -57 27 -94 49 -109
64 -8 7 -24 18 -35 23 -12 5 -41 23 -66 39 -25 16 -56 35 -70 42 -14 7 -27 15
-30 19 -3 3 -52 36 -110 74 -58 38 -106 72 -108 77 -2 4 -7 8 -12 8 -10 0 -99
60 -153 103 -23 17 -49 37 -58 42 -19 11 -123 82 -214 146 -33 24 -64 48 -70
54 -5 6 -37 29 -70 50 -33 21 -62 41 -65 45 -4 5 -69 49 -145 100 -13 8 -55
38 -94 65 -39 28 -84 57 -99 65 -15 8 -29 17 -32 20 -25 26 -105 78 -170 112
-14 7 -27 15 -30 19 -7 8 -88 60 -120 77 -14 7 -43 24 -65 37 -22 13 -58 34
-80 46 -22 12 -42 24 -45 28 -3 3 -36 22 -75 41 -38 19 -81 43 -94 53 -13 9
-31 17 -41 17 -9 0 -25 9 -35 20 -10 11 -27 20 -37 20 -11 0 -36 11 -56 25
-20 14 -45 25 -55 25 -10 0 -30 9 -44 20 -14 11 -33 20 -42 20 -9 0 -34 12
-56 25 -22 14 -49 25 -60 25 -11 0 -33 9 -50 20 -16 11 -37 20 -47 20 -9 0
-40 11 -70 25 -29 14 -61 25 -71 25 -11 0 -30 9 -44 20 -14 11 -38 20 -54 20
-15 0 -49 11 -75 25 -26 14 -61 25 -78 25 -17 0 -42 9 -56 20 -15 12 -41 20
-64 20 -21 0 -53 8 -70 19 -17 10 -57 21 -89 25 -32 3 -83 15 -115 25 -32 11
-99 22 -152 25 -52 3 -131 12 -175 20 -62 12 -159 16 -421 16 -187 0 -344 -3
-347 -6z"/>
<path d="M29409 6006 c-74 -50 -69 25 -69 -1133 0 -991 1 -1040 19 -1073 10
-19 33 -45 51 -57 l33 -23 1056 0 c1041 0 1056 0 1089 20 19 12 41 38 52 63
19 41 20 78 20 1073 l0 1031 -23 43 c-46 86 46 80 -1142 80 l-1050 0 -36 -24z"/>
<path d="M32016 6023 c-4 -5 -11 -8 -16 -8 -20 0 -71 -48 -66 -61 3 -8 2 -12
-4 -9 -5 3 -12 -9 -15 -27 -3 -18 -4 -500 -3 -1070 3 -1030 3 -1037 24 -1065
11 -15 36 -36 55 -45 32 -17 104 -18 1077 -18 1158 0 1078 -5 1127 67 l25 38
0 1042 c0 660 -4 1051 -10 1068 -13 35 -49 72 -83 84 -33 13 -2099 16 -2111 4z"/>
<path d="M23989 5503 c-35 -4 -38 -7 -59 -65 -32 -88 -524 -1236 -561 -1310
-60 -119 -98 -151 -198 -164 -48 -6 -51 -8 -51 -35 l0 -29 270 0 270 0 0 28
c0 27 -2 29 -71 39 -90 14 -113 33 -106 88 2 22 38 126 79 230 l74 190 276 3
276 2 72 -215 c48 -145 70 -224 66 -240 -9 -35 -45 -55 -110 -62 -54 -6 -56
-7 -56 -34 l0 -29 300 0 c252 0 300 2 300 14 0 8 3 21 6 29 4 12 -7 17 -48 22
-92 12 -133 36 -164 97 -32 62 -453 1269 -480 1376 -13 52 -23 72 -34 70 -8
-1 -31 -3 -51 -5z m56 -598 c58 -170 105 -315 105 -321 0 -10 -52 -13 -235
-13 -129 0 -235 3 -235 7 0 11 253 642 256 639 2 -1 50 -142 109 -312z"/>
<path d="M20010 5485 c-280 -47 -499 -181 -619 -379 -77 -129 -111 -260 -111
-436 0 -238 73 -416 234 -567 161 -152 343 -221 606 -230 156 -6 291 11 485
60 l90 23 0 245 c0 260 4 283 50 313 12 8 38 18 59 21 31 6 36 11 36 34 l0 26
-305 0 -304 0 -6 -24 c-3 -13 -4 -25 -3 -27 2 -2 35 -6 73 -9 39 -4 94 -13
122 -21 81 -22 84 -33 81 -276 l-3 -203 -40 -22 c-68 -37 -193 -56 -324 -50
-64 3 -137 12 -163 21 -294 94 -458 357 -458 735 1 422 224 677 610 698 130 7
203 -6 297 -52 110 -54 183 -155 199 -273 6 -51 7 -52 40 -52 l34 0 0 103 c0
56 3 146 7 199 l6 96 -42 12 c-167 45 -491 62 -651 35z"/>
<path d="M27852 5480 c-210 -56 -330 -189 -340 -376 -10 -194 89 -327 327
-441 240 -114 284 -138 330 -179 72 -65 104 -136 104 -230 -1 -121 -55 -208
-166 -266 -35 -19 -58 -23 -142 -23 -88 0 -107 3 -159 28 -106 49 -183 138
-246 282 -26 60 -37 75 -54 75 -45 0 -48 -11 -27 -101 11 -46 27 -136 36 -199
9 -63 18 -115 18 -116 1 -1 38 -10 82 -22 312 -81 553 -45 715 105 157 145
186 378 66 541 -63 85 -132 132 -350 237 -109 52 -218 112 -242 131 -65 54
-99 130 -99 224 1 64 5 83 30 129 54 98 137 137 272 129 93 -5 161 -33 216
-86 49 -47 74 -95 94 -183 15 -70 16 -70 47 -67 l31 3 7 185 c3 102 5 186 4
187 -1 1 -44 12 -96 24 -138 32 -358 36 -458 9z"/>
<path d="M16924 5473 c-241 -3 -242 -3 -248 -26 -3 -12 -6 -25 -6 -28 0 -3 32
-9 71 -13 76 -7 123 -25 139 -55 6 -13 10 -242 10 -650 1 -693 1 -684 -59
-715 -17 -9 -58 -19 -91 -23 -57 -6 -60 -7 -60 -33 l0 -27 273 -8 c492 -14
558 -11 717 43 269 89 460 272 545 521 56 167 60 392 8 543 -89 257 -318 420
-658 467 -42 6 -149 10 -238 9 -89 -2 -271 -4 -403 -5z m568 -87 c221 -43 378
-156 468 -339 52 -106 70 -192 70 -348 0 -361 -177 -612 -494 -700 -118 -33
-312 -34 -373 -1 -81 43 -77 9 -81 699 -2 419 1 619 8 633 33 61 231 89 402
56z"/>
<path d="M18470 5441 c0 -27 2 -28 60 -34 70 -8 114 -28 132 -60 10 -17 13
-159 13 -652 0 -583 -1 -632 -18 -662 -21 -40 -59 -61 -129 -71 -48 -7 -53
-10 -53 -32 l0 -25 298 -3 297 -2 0 28 c0 28 -2 29 -60 35 -70 8 -114 28 -132
60 -10 17 -13 158 -13 647 0 563 2 629 17 662 20 45 61 68 134 75 51 6 54 7
54 34 l0 29 -300 0 -300 0 0 -29z"/>
<path d="M21020 5441 c0 -27 2 -28 60 -34 70 -8 114 -28 132 -60 10 -17 13
-159 13 -652 0 -583 -1 -632 -18 -662 -21 -40 -62 -62 -128 -70 -55 -6 -63
-13 -54 -43 6 -19 16 -20 301 -20 l294 0 0 29 c0 27 -2 29 -62 35 -71 8 -112
27 -130 59 -10 17 -13 158 -13 647 0 563 2 629 17 662 20 45 61 68 134 75 51
6 54 7 54 34 l0 29 -300 0 -300 0 0 -29z"/>
<path d="M21765 5438 c3 -18 7 -107 9 -198 l5 -165 28 -3 c28 -3 28 -1 50 90
27 114 60 164 128 198 45 22 64 25 208 28 l158 4 -3 -663 c-3 -730 -1 -704
-64 -741 -18 -10 -62 -21 -98 -25 -64 -6 -66 -7 -66 -34 l0 -29 325 0 325 0 0
29 c0 28 -1 28 -71 35 -89 8 -136 27 -149 61 -6 17 -10 277 -10 697 l0 670
153 -5 c175 -5 210 -14 260 -62 37 -36 71 -123 84 -212 5 -40 8 -43 38 -43
l32 0 6 178 c4 97 10 187 13 200 l6 22 -686 0 -687 0 6 -32z"/>
<path d="M24850 5440 c0 -27 3 -30 30 -30 59 0 128 -21 151 -46 l24 -26 0
-642 c0 -596 -1 -644 -18 -669 -23 -36 -68 -58 -133 -64 -51 -6 -54 -7 -54
-34 l0 -29 545 0 545 0 0 25 c0 30 47 279 61 319 10 33 0 46 -36 46 -15 0 -30
-21 -62 -89 -69 -147 -119 -189 -247 -212 -88 -15 -301 -8 -341 12 -16 8 -38
30 -48 49 -16 32 -17 79 -15 650 3 568 4 618 21 643 23 36 68 58 133 64 51 6
54 7 54 34 l0 29 -305 0 -305 0 0 -30z"/>
<path d="M26136 5448 c-3 -13 -6 -26 -6 -29 0 -3 29 -9 65 -12 35 -3 78 -13
96 -22 61 -32 60 -23 57 -703 -3 -559 -5 -620 -20 -648 -22 -39 -69 -62 -147
-70 -59 -7 -61 -8 -61 -35 l0 -29 568 0 569 0 13 88 c7 48 23 132 35 187 24
105 22 115 -20 115 -15 0 -30 -20 -62 -87 -91 -188 -154 -223 -408 -223 -150
0 -214 12 -246 46 l-24 26 -3 304 -3 304 23 0 c73 0 506 -22 520 -26 14 -4 17
5 20 58 2 35 2 69 0 76 -4 11 -46 12 -211 7 -113 -3 -239 -8 -278 -11 l-73 -5
0 304 c0 255 2 307 15 317 10 9 69 11 217 8 195 -3 206 -4 253 -29 60 -30 91
-80 115 -184 16 -67 18 -70 47 -73 l31 -3 6 83 c3 46 8 129 12 186 l6 102
-550 0 -550 0 -6 -22z"/>
<path d="M1230 5335 c-19 -14 -38 -25 -42 -25 -5 0 -19 -10 -32 -22 -13 -13
-41 -36 -61 -53 -21 -16 -42 -34 -46 -40 -54 -63 -85 -107 -102 -142 -12 -24
-24 -43 -28 -43 -4 0 -11 -15 -14 -32 -4 -18 -14 -40 -21 -49 -8 -9 -19 -45
-25 -79 -5 -34 -17 -76 -25 -93 -13 -23 -16 -65 -17 -186 0 -133 3 -167 21
-227 12 -39 22 -86 22 -105 0 -19 8 -47 18 -64 10 -16 21 -47 25 -68 3 -20 15
-49 26 -64 12 -14 21 -32 21 -40 0 -8 9 -26 20 -40 11 -14 20 -31 20 -37 0
-21 140 -223 195 -282 17 -17 52 -54 78 -82 26 -28 71 -70 100 -93 29 -24 62
-52 73 -63 23 -23 41 -36 92 -66 17 -11 32 -24 32 -30 0 -5 5 -10 11 -10 7 0
42 -20 80 -45 38 -25 73 -45 79 -45 5 0 34 -12 62 -27 109 -56 126 -63 149
-63 13 0 38 -9 54 -20 17 -11 41 -20 55 -20 14 0 48 -11 75 -25 28 -13 63 -25
78 -25 16 0 49 -9 75 -19 26 -11 75 -22 109 -26 35 -3 78 -12 97 -20 18 -8 87
-19 152 -25 66 -6 151 -16 189 -22 76 -13 518 -16 575 -4 67 13 176 26 264 31
50 3 102 12 118 19 15 8 63 17 105 21 43 4 93 13 111 21 18 7 61 18 95 24 34
6 76 17 92 25 17 7 48 17 70 21 22 3 57 15 77 25 21 11 48 19 60 19 13 0 39 8
58 19 19 10 52 21 73 25 21 4 52 15 70 25 18 11 49 22 70 25 20 4 37 11 37 16
0 5 17 14 38 20 20 7 51 21 68 31 17 11 40 19 51 19 10 0 34 11 53 25 19 14
42 25 51 25 10 0 21 5 25 11 3 6 25 19 48 30 22 10 48 23 56 28 8 5 26 14 40
20 59 28 97 50 109 65 8 9 19 16 26 16 7 0 54 28 105 63 50 34 99 67 108 72 9
6 50 35 91 65 40 30 82 60 92 66 11 6 34 25 52 41 19 17 44 36 55 42 12 7 22
15 22 19 0 11 -55 42 -77 42 -10 0 -40 12 -68 25 -40 20 -65 25 -129 25 -69 0
-83 -3 -112 -25 -18 -14 -35 -25 -38 -25 -7 0 -96 -61 -114 -77 -7 -7 -19 -13
-26 -13 -7 0 -21 -9 -30 -19 -10 -11 -29 -22 -43 -26 -14 -3 -32 -13 -40 -21
-9 -8 -28 -18 -44 -21 -15 -3 -36 -14 -45 -24 -9 -11 -27 -19 -39 -19 -12 0
-33 -8 -46 -19 -13 -10 -38 -21 -56 -25 -17 -4 -48 -16 -69 -27 -21 -10 -50
-19 -64 -19 -14 0 -39 -9 -56 -19 -17 -10 -55 -22 -85 -26 -30 -4 -67 -14 -84
-23 -16 -8 -65 -19 -108 -23 -43 -4 -84 -13 -91 -19 -8 -5 -85 -17 -172 -26
-399 -38 -588 -44 -784 -25 -58 6 -176 17 -263 25 -87 8 -177 21 -200 30 -23
8 -69 18 -102 21 -33 4 -71 13 -85 20 -14 7 -47 16 -73 20 -26 4 -64 16 -84
26 -21 11 -46 19 -58 19 -11 0 -33 9 -50 20 -16 11 -39 20 -51 20 -12 0 -38
11 -58 25 -20 14 -43 25 -50 25 -7 0 -25 9 -39 20 -14 11 -31 20 -39 20 -8 0
-29 11 -48 25 -19 14 -39 25 -45 25 -7 0 -20 9 -30 20 -10 11 -22 20 -27 20
-10 0 -22 9 -133 97 -85 67 -144 122 -212 199 -64 73 -143 171 -143 178 0 3
-16 27 -35 52 -20 26 -42 62 -50 80 -8 19 -18 34 -24 34 -5 0 -15 17 -21 38
-7 20 -18 44 -25 52 -7 8 -18 32 -24 52 -7 20 -19 42 -27 48 -7 7 -14 22 -14
34 0 11 -8 35 -18 51 -11 17 -22 48 -26 70 -4 22 -16 65 -27 95 -29 78 -33
347 -6 399 9 19 17 36 17 38 0 12 -42 -1 -70 -22z"/>
<path d="M16580 3388 c-18 -13 -41 -39 -51 -58 -18 -33 -19 -82 -19 -1081 l0
-1046 23 -33 c12 -18 35 -43 50 -54 28 -21 29 -21 1087 -21 1054 0 1059 0
1086 21 15 11 37 33 48 48 21 27 21 35 24 1079 2 1010 1 1053 -16 1087 -11 19
-34 45 -52 58 l-33 22 -1057 0 -1057 0 -33 -22z"/>
<path d="M19152 3390 c-18 -11 -41 -34 -52 -52 -20 -33 -20 -49 -18 -1093 3
-1042 3 -1060 23 -1087 11 -14 34 -35 50 -45 29 -17 79 -18 1081 -18 l1050 0
36 25 c20 13 44 38 55 55 17 29 18 77 18 1082 0 1051 0 1052 -21 1080 -11 15
-36 38 -54 51 l-33 22 -1051 0 c-1031 0 -1052 0 -1084 -20z"/>
<path d="M21709 3386 c-73 -50 -69 13 -69 -1134 l0 -1028 23 -44 c16 -33 34
-51 67 -68 l45 -22 1042 2 c1039 3 1042 3 1070 24 15 11 38 36 51 54 l22 33 0
1046 c0 1167 5 1089 -69 1138 l-34 23 -1056 0 -1056 0 -36 -24z"/>
<path d="M24282 3390 c-18 -11 -41 -34 -52 -52 -20 -32 -20 -53 -20 -1084 l0
-1051 23 -33 c12 -18 35 -43 50 -54 28 -21 31 -21 1070 -24 l1042 -2 45 22
c26 14 53 37 65 58 20 35 20 49 20 1086 l0 1050 -25 37 c-48 71 27 67 -1137
67 -1028 0 -1049 0 -1081 -20z"/>
<path d="M26850 3388 c-18 -13 -43 -36 -54 -51 -21 -28 -21 -29 -21 -1080 l0
-1052 22 -35 c12 -19 37 -44 55 -55 32 -20 51 -20 1085 -20 1051 0 1052 0
1080 21 15 11 38 36 51 54 l22 33 0 1051 c0 1031 0 1052 -20 1084 -11 18 -34
41 -52 52 -32 20 -53 20 -1084 20 l-1051 0 -33 -22z m1040 -1128 l0 -540 216
0 216 0 -7 -57 c-4 -32 -10 -61 -14 -66 -4 -4 -151 -6 -327 -5 l-319 3 -3 603
-2 602 120 0 120 0 0 -540z"/>
<path d="M29409 3386 c-74 -51 -70 22 -67 -1148 3 -1046 3 -1047 24 -1075 12
-15 36 -37 55 -48 33 -20 54 -20 1069 -23 l1035 -2 45 22 c33 17 51 35 68 68
l22 44 0 1028 c0 1134 3 1075 -63 1128 l-31 25 -1061 3 -1060 2 -36 -24z
m1304 -748 c36 -106 128 -378 206 -604 77 -226 141 -417 143 -425 2 -11 -21
-14 -122 -14 l-125 0 -66 200 -65 200 -211 0 c-116 0 -215 -3 -219 -7 -4 -4
-37 -94 -74 -200 l-66 -193 -72 -3 c-57 -2 -72 0 -72 11 0 13 438 1177 447
1186 4 6 178 39 209 40 18 1 29 -22 87 -191z"/>
<path d="M30463 2600 c-6 -14 -35 -97 -66 -185 -30 -88 -64 -187 -76 -220 -12
-32 -21 -63 -21 -67 0 -4 77 -8 171 -8 158 0 170 1 165 18 -3 9 -41 123 -85
252 -68 204 -80 232 -88 210z"/>
<path d="M32013 3403 c-26 -5 -81 -59 -94 -91 -5 -13 -9 -469 -9 -1065 l0
-1042 25 -38 c49 -72 -31 -67 1132 -67 1028 0 1049 0 1081 20 18 11 41 34 52
52 20 32 20 53 20 1075 0 620 -4 1052 -9 1066 -12 32 -56 76 -88 88 -24 9
-2064 11 -2110 2z m1202 -608 c135 -28 211 -89 241 -191 28 -98 4 -213 -61
-287 -14 -15 -47 -38 -75 -51 l-49 -23 37 -11 c59 -18 128 -69 161 -119 63
-95 69 -242 13 -356 -18 -37 -38 -67 -44 -67 -5 0 -7 -7 -4 -16 3 -8 2 -12 -4
-9 -6 3 -23 -3 -38 -14 -15 -10 -57 -30 -92 -43 -61 -22 -79 -23 -290 -23
-124 1 -242 4 -262 8 l-38 8 0 599 0 599 58 4 c159 10 381 6 447 -8z"/>
<path d="M32952 2494 l3 -189 80 0 c89 1 127 15 159 58 18 24 21 43 21 122 0
79 -3 98 -21 122 -35 47 -79 66 -166 71 l-78 5 2 -189z"/>
<path d="M32952 1943 l3 -228 100 3 c120 3 160 19 192 77 19 33 23 56 23 129
0 76 -4 95 -25 135 -42 76 -115 111 -233 111 l-62 0 2 -227z"/>
<path d="M11784 2020 c-4 -22 -10 -40 -15 -40 -5 0 -9 -15 -9 -34 0 -19 -4
-37 -9 -40 -5 -4 -12 -25 -16 -49 -6 -38 -15 -67 -35 -107 -4 -9 -11 -39 -15
-68 -4 -29 -11 -52 -16 -52 -5 0 -9 -7 -9 -16 0 -24 80 -15 94 11 6 11 14 22
17 25 3 3 9 12 12 20 4 8 16 29 27 45 11 17 23 37 26 45 4 8 28 34 55 58 l50
42 185 0 185 0 -1 -642 c-1 -475 -5 -647 -13 -658 -28 -36 -66 -50 -137 -50
l-70 0 0 -40 0 -40 340 0 340 0 0 40 0 40 -69 0 c-69 0 -103 11 -134 42 -15
15 -17 76 -17 662 l0 646 176 0 c155 0 180 -2 220 -20 42 -20 70 -56 65 -87
-1 -6 3 -14 9 -18 5 -3 10 -17 10 -31 0 -13 5 -24 10 -24 6 0 10 -18 10 -40 0
-38 2 -40 30 -40 l30 0 0 63 c0 35 -3 139 -7 230 -6 163 -7 167 -28 167 -22 0
-65 -38 -65 -57 0 -7 -14 -19 -32 -27 -27 -14 -96 -16 -525 -16 -322 0 -493 3
-493 10 0 6 -15 10 -33 10 -38 0 -67 25 -67 58 0 18 -6 22 -35 22 -33 0 -35
-2 -41 -40z"/>
<path d="M1375 1984 c-22 -3 -49 -9 -60 -14 -11 -4 -33 -11 -50 -14 -32 -7
-39 -9 -70 -21 -72 -27 -108 -49 -168 -105 -43 -39 -87 -110 -87 -139 0 -5 -3
-11 -8 -13 -9 -4 -127 -239 -127 -255 0 -6 -4 -15 -8 -19 -4 -4 -7 -18 -7 -31
0 -12 -4 -23 -10 -23 -5 0 -10 -22 -10 -49 0 -28 -4 -52 -9 -55 -13 -8 -14
-213 -1 -221 5 -3 10 -24 10 -45 0 -21 5 -42 10 -45 6 -3 10 -19 10 -35 0 -16
5 -32 10 -35 6 -4 8 -10 5 -15 -5 -8 11 -46 25 -60 9 -9 29 -44 49 -85 11 -22
35 -54 55 -70 20 -16 36 -35 36 -41 0 -7 28 -36 63 -65 34 -30 64 -56 67 -59
8 -9 77 -40 89 -40 6 0 11 -4 11 -10 0 -5 13 -10 28 -10 15 0 34 -6 40 -13 18
-18 565 -18 583 1 7 6 30 12 50 12 21 0 41 5 44 10 3 6 19 10 35 10 49 0 60 9
60 50 0 22 5 42 10 45 6 3 10 19 10 35 0 16 4 31 9 35 6 3 8 15 6 26 -2 11 0
28 4 37 16 31 29 67 34 90 4 16 1 22 -13 22 -11 0 -22 5 -25 10 -8 14 -35 13
-35 -1 0 -12 -31 -81 -39 -89 -9 -7 -30 -42 -40 -65 -11 -24 -96 -104 -131
-124 -13 -8 -55 -16 -93 -19 -37 -3 -70 -9 -73 -13 -7 -13 -184 -11 -184 1 0
6 -13 10 -29 10 -50 0 -166 67 -223 130 -67 73 -78 87 -78 98 0 5 -7 15 -15
22 -8 7 -15 23 -15 36 0 13 -3 24 -7 24 -13 0 -32 50 -26 66 3 8 0 14 -6 14
-6 0 -11 15 -11 34 0 19 -5 36 -11 38 -12 4 -28 377 -16 385 4 2 7 26 7 53 0
27 5 52 10 55 6 3 10 19 10 34 0 15 3 31 7 35 4 4 8 13 9 19 2 24 17 57 24 57
5 0 11 13 15 29 3 16 15 37 26 47 10 9 19 23 19 31 0 7 7 16 15 19 8 4 15 14
16 23 0 9 34 46 75 84 65 58 80 67 113 67 21 0 41 3 45 8 20 20 245 22 304 3
23 -8 42 -17 42 -22 0 -4 12 -10 28 -14 37 -9 143 -119 170 -178 26 -55 58
-75 91 -58 22 12 27 26 11 36 -5 3 -7 12 -4 19 3 8 1 17 -5 21 -6 3 -11 19
-11 35 0 16 -4 31 -9 34 -9 6 -23 64 -25 105 -1 16 -11 30 -31 40 -45 24 -97
41 -106 35 -5 -3 -9 0 -9 5 0 6 -10 11 -23 11 -13 0 -28 5 -34 11 -11 11 -369
21 -448 13z"/>
<path d="M3273 1983 c-24 -2 -43 -8 -43 -14 0 -5 -13 -9 -29 -9 -17 0 -32 -4
-36 -9 -3 -5 -18 -12 -35 -16 -65 -14 -135 -59 -221 -142 -49 -47 -89 -91 -89
-97 0 -6 -9 -18 -20 -26 -10 -8 -22 -27 -25 -42 -4 -15 -10 -28 -15 -28 -4 0
-11 -10 -15 -22 -4 -13 -8 -25 -10 -28 -1 -3 -5 -14 -9 -25 -4 -11 -12 -28
-17 -37 -5 -10 -9 -28 -9 -41 0 -13 -3 -27 -7 -31 -4 -4 -6 -22 -5 -41 2 -18
-1 -36 -7 -40 -13 -8 -15 -285 -2 -285 4 0 11 -35 15 -77 3 -43 11 -79 16 -81
6 -2 10 -13 10 -25 0 -12 6 -33 14 -47 75 -141 62 -122 175 -241 47 -49 90
-89 97 -89 7 0 17 -6 21 -13 8 -14 73 -47 92 -47 6 0 11 -4 11 -10 0 -5 13
-10 28 -10 15 0 33 -5 40 -12 17 -17 484 -18 489 0 3 6 15 12 28 12 13 0 26 4
30 9 3 6 26 13 50 17 25 3 45 10 45 14 0 4 8 11 18 14 79 29 266 208 287 277
4 13 11 26 14 29 11 8 41 77 41 93 0 9 5 19 10 22 6 3 10 19 10 34 0 15 6 33
13 39 9 10 12 69 12 227 0 158 -3 217 -12 227 -7 6 -13 24 -13 39 0 15 -4 31
-10 34 -5 3 -10 13 -10 21 0 19 -33 94 -42 94 -3 0 -9 13 -13 29 -3 16 -17 39
-31 51 -13 13 -24 27 -24 31 0 10 -150 160 -176 176 -48 30 -142 73 -160 73
-11 0 -25 5 -30 10 -11 11 -377 21 -451 13z m367 -110 c36 -17 74 -40 84 -52
11 -11 24 -21 29 -21 15 0 57 -41 57 -55 0 -7 9 -20 20 -30 22 -20 90 -154 90
-178 0 -9 5 -19 10 -22 6 -3 10 -19 10 -34 0 -15 6 -33 13 -40 9 -9 12 -74 12
-256 0 -182 -3 -247 -12 -257 -7 -6 -13 -24 -13 -39 0 -15 -4 -31 -10 -34 -5
-3 -10 -13 -10 -21 0 -19 -33 -94 -42 -94 -3 0 -9 -13 -13 -29 -3 -16 -17 -39
-31 -51 -13 -13 -24 -29 -24 -35 0 -12 -45 -56 -70 -68 -8 -4 -33 -18 -55 -32
-53 -33 -81 -45 -110 -45 -13 0 -27 -4 -30 -10 -8 -12 -162 -13 -169 -1 -3 4
-24 11 -47 14 -23 3 -45 9 -48 14 -3 5 -22 16 -41 25 -29 14 -190 164 -183
171 5 5 -10 47 -17 47 -4 0 -11 10 -15 23 -4 12 -8 24 -10 27 -1 3 -5 14 -9
25 -4 11 -12 28 -17 38 -5 10 -12 54 -16 98 -3 44 -10 82 -15 85 -11 7 -11
311 1 318 4 3 11 37 15 76 3 39 10 78 15 88 21 38 41 91 41 104 0 8 9 23 20
33 11 10 17 21 15 25 -2 4 4 15 15 25 11 10 20 22 20 28 0 12 65 77 77 77 6 0
18 9 27 19 10 11 31 23 47 26 16 4 29 10 29 15 0 8 39 21 72 25 10 1 21 5 25
9 5 5 51 6 103 3 78 -3 106 -10 160 -34z"/>
<path d="M8663 1983 c-29 -2 -53 -8 -53 -14 0 -5 -16 -9 -35 -9 -19 0 -35 -5
-35 -11 0 -5 -8 -9 -17 -8 -31 4 -93 -24 -148 -66 -42 -32 -115 -102 -115
-110 0 -13 -36 -85 -42 -85 -5 0 -8 -4 -8 -10 0 -17 -34 -90 -42 -90 -5 0 -8
-4 -8 -10 0 -17 -34 -90 -42 -90 -4 0 -11 -18 -14 -40 -4 -22 -10 -40 -15 -40
-5 0 -9 -11 -9 -24 0 -14 -5 -28 -11 -31 -6 -4 -9 -24 -8 -46 2 -21 0 -41 -4
-45 -9 -10 -9 -229 0 -238 4 -4 6 -23 4 -42 -1 -19 2 -34 8 -34 6 0 11 -16 11
-35 0 -19 5 -35 10 -35 6 0 10 -10 10 -22 1 -13 12 -41 26 -63 13 -22 27 -48
30 -57 4 -10 10 -18 15 -18 5 0 9 -6 9 -13 0 -7 18 -31 40 -52 22 -21 40 -44
40 -49 0 -14 51 -66 65 -66 6 0 26 -16 45 -35 19 -19 40 -35 47 -35 7 0 13 -4
13 -9 0 -5 13 -12 30 -16 16 -4 32 -11 35 -16 4 -5 19 -9 35 -9 15 0 30 -6 32
-12 7 -19 571 -19 589 0 7 6 28 12 45 12 18 0 36 5 39 10 3 6 23 10 44 10 47
0 66 19 58 60 -4 16 -2 32 3 35 6 3 10 19 10 36 0 16 5 29 10 29 6 0 10 15 10
34 0 19 5 38 10 41 6 4 8 10 5 15 -3 5 -1 18 5 30 32 64 32 60 5 60 -14 0 -25
5 -25 11 0 6 -7 9 -16 7 -8 -2 -14 -7 -14 -12 1 -5 -2 -12 -7 -15 -10 -7 -43
-74 -43 -88 0 -5 -9 -15 -20 -23 -11 -8 -20 -19 -20 -25 0 -14 -103 -115 -117
-115 -6 0 -13 -5 -15 -11 -2 -5 -38 -13 -81 -16 -43 -3 -80 -10 -83 -14 -7
-12 -171 -11 -179 1 -3 6 -18 10 -33 10 -43 0 -161 65 -214 117 -26 26 -48 51
-48 56 0 8 -15 28 -60 84 -6 7 -10 20 -10 30 0 10 -7 27 -15 37 -8 11 -15 30
-15 42 0 13 -4 26 -10 29 -5 3 -10 19 -10 34 0 15 -3 31 -7 35 -4 4 -6 24 -4
45 1 22 -2 42 -8 46 -13 8 -15 291 -2 299 4 3 7 26 6 51 -2 25 1 45 6 45 5 0
9 16 9 35 0 19 5 35 10 35 6 0 10 9 10 19 0 23 59 141 70 141 4 0 11 8 14 18
18 50 136 182 163 182 7 0 13 4 13 9 0 5 19 11 43 14 23 3 65 10 92 16 64 13
192 14 200 1 3 -5 12 -7 19 -4 26 10 131 -49 194 -110 34 -33 62 -64 62 -69 0
-5 9 -21 20 -37 11 -15 17 -29 14 -32 -7 -8 21 -28 47 -33 32 -6 50 12 43 44
-4 14 -11 30 -15 36 -5 5 -9 21 -9 36 0 15 -5 31 -10 34 -6 4 -10 12 -9 18 1
7 -1 19 -4 27 -3 8 -8 31 -9 50 -3 34 -22 49 -93 76 -32 11 -38 13 -70 20 -16
4 -33 11 -36 16 -7 10 -366 19 -456 11z"/>
<path d="M4800 1920 l0 -40 68 -1 c45 0 77 -6 97 -18 l30 -18 3 -628 c2 -643
0 -685 -35 -685 -7 0 -13 -4 -13 -10 0 -6 -35 -10 -85 -10 l-85 0 0 -50 0 -50
50 0 c28 0 50 5 50 10 0 6 75 10 205 10 l205 0 0 40 0 40 -65 0 c-62 0 -89 8
-127 39 -17 13 -18 51 -18 538 0 287 4 523 8 523 12 0 42 -34 42 -46 0 -6 14
-23 30 -39 17 -16 30 -34 30 -41 0 -6 16 -26 35 -43 19 -17 35 -34 35 -39 0
-5 18 -27 40 -50 22 -22 40 -44 40 -49 0 -5 16 -24 35 -43 19 -19 35 -38 35
-43 0 -5 11 -21 24 -35 13 -15 42 -48 65 -73 22 -25 41 -50 41 -56 0 -5 16
-24 35 -43 19 -19 35 -39 35 -46 0 -7 14 -24 30 -37 17 -14 30 -30 30 -34 0
-5 16 -24 35 -43 19 -19 35 -39 35 -45 0 -6 14 -24 30 -40 17 -16 30 -33 30
-38 0 -5 16 -24 35 -43 19 -18 35 -37 35 -42 0 -4 16 -23 35 -42 19 -19 35
-39 35 -45 0 -6 14 -24 30 -40 17 -16 30 -32 30 -37 0 -4 18 -26 40 -48 41
-41 41 -41 108 -38 l67 3 5 727 c3 399 7 728 10 730 32 21 59 28 110 28 l60 0
0 40 0 40 -240 0 -240 0 0 -40 0 -40 75 0 c43 0 75 -4 75 -10 0 -5 11 -10 24
-10 17 0 26 -7 30 -24 4 -16 9 -963 6 -1109 0 -11 -60 48 -60 60 0 5 -16 24
-35 43 -19 19 -35 38 -35 43 0 9 -31 47 -101 124 -16 18 -29 36 -29 41 0 4
-16 23 -35 42 -19 19 -35 39 -35 45 0 6 -13 24 -30 40 -16 16 -30 33 -30 38 0
4 -16 23 -35 41 -19 19 -35 38 -35 43 0 5 -13 22 -30 38 -16 16 -30 33 -30 39
0 5 -20 29 -45 53 -25 23 -45 46 -45 51 0 5 -13 21 -30 37 -16 16 -30 34 -30
40 0 6 -16 26 -35 45 -19 19 -35 38 -35 43 0 6 -11 22 -25 36 -52 55 -105 119
-105 126 0 4 -17 27 -37 51 -21 24 -51 59 -66 79 l-29 35 -164 0 -164 0 0 -40z"/>
<path d="M6880 1920 l0 -40 63 0 c71 0 113 -16 122 -45 3 -11 5 -301 5 -644 0
-565 -2 -626 -17 -643 -9 -10 -22 -18 -30 -18 -7 0 -13 -4 -13 -10 0 -6 -28
-10 -65 -10 l-65 0 0 -40 0 -40 320 0 320 0 0 40 0 40 -59 0 c-59 0 -94 12
-124 42 -15 15 -17 74 -17 645 l0 628 39 28 c32 22 50 27 100 27 l61 0 0 40 0
40 -320 0 -320 0 0 -40z"/>
<path d="M9910 1920 l0 -40 75 0 c43 0 75 -4 75 -10 0 -5 7 -10 15 -10 8 0 15
-7 15 -15 0 -8 5 -15 10 -15 7 0 10 -220 10 -640 0 -608 -1 -641 -18 -657 -35
-34 -62 -43 -122 -43 l-60 0 0 -30 0 -30 630 0 629 0 6 38 c3 20 10 45 16 54
5 10 9 29 9 42 0 14 5 28 11 32 6 3 9 17 6 30 -2 14 0 27 4 30 5 3 9 18 9 34
0 16 5 32 10 35 6 3 10 19 10 35 0 16 5 32 10 35 24 15 7 26 -37 23 -44 -3
-48 -5 -51 -30 -2 -16 -8 -28 -13 -28 -5 0 -9 -8 -9 -19 0 -76 -150 -211 -234
-211 -14 0 -28 -4 -31 -10 -9 -14 -365 -13 -365 1 0 6 -16 10 -37 9 -21 -2
-57 1 -80 5 l-43 8 0 323 0 324 205 0 c207 0 225 -3 264 -39 30 -28 41 -64 41
-137 l0 -74 38 0 37 0 0 270 0 270 -37 0 -38 0 0 -65 c0 -37 -4 -65 -10 -65
-5 0 -10 -6 -10 -13 0 -8 -12 -24 -26 -38 -25 -24 -29 -24 -245 -27 l-219 -3
0 295 0 296 54 0 c30 0 58 5 61 10 8 12 272 14 279 1 3 -4 36 -10 73 -13 38
-3 80 -11 93 -19 37 -21 70 -51 65 -59 -3 -4 4 -15 15 -25 11 -10 20 -26 20
-36 0 -10 4 -20 9 -23 4 -3 6 -16 4 -29 -6 -29 27 -60 59 -55 22 3 23 6 26
112 2 66 -1 113 -8 120 -5 5 -10 34 -10 63 l0 53 -595 0 -595 0 0 -40z"/>
<path d="M24359 813 c-11 -3 -37 -81 -96 -291 l-80 -287 24 -3 c14 -2 27 -1
30 2 4 4 163 560 163 570 0 7 -25 12 -41 9z"/>
<path d="M28414 812 c-7 -4 -48 -135 -92 -292 l-80 -285 25 -3 c14 -2 27 -1
31 2 6 7 161 555 162 574 0 13 -28 16 -46 4z"/>
<path d="M22430 526 l0 -286 35 0 35 0 1 123 c1 67 1 127 0 134 -1 6 14 23 32
37 45 34 89 34 116 0 19 -24 21 -40 21 -160 l0 -134 35 0 35 0 0 145 c0 162
-8 193 -60 220 -40 21 -88 19 -133 -5 -20 -11 -39 -20 -41 -20 -2 0 -3 51 -2
113 l1 112 -38 3 -37 3 0 -285z"/>
<path d="M24037 533 c-43 -153 -78 -284 -77 -290 0 -7 11 -13 24 -13 19 0 27
8 35 33 12 38 151 537 151 543 0 2 -13 4 -28 4 l-28 0 -77 -277z"/>
<path d="M24470 526 l0 -286 35 0 35 0 0 131 0 131 29 29 c39 39 91 40 120 3
19 -24 21 -40 21 -160 l0 -134 35 0 35 0 0 145 c0 162 -8 193 -60 220 -40 21
-99 19 -135 -5 -16 -11 -32 -20 -35 -20 -3 0 -5 51 -5 113 l0 112 -37 3 -38 3
0 -285z"/>
<path d="M25130 711 l0 -99 -62 5 c-53 4 -70 1 -107 -19 -122 -66 -123 -272
-2 -335 38 -20 59 -23 148 -23 l103 0 0 285 0 285 -40 0 -40 0 0 -99z m-26
-161 c26 -9 26 -10 26 -131 l0 -122 -65 6 c-76 6 -100 22 -116 78 -33 110 56
207 155 169z"/>
<path d="M25317 803 c-2 -5 -1 -133 1 -285 l4 -278 34 0 34 0 0 285 0 285 -34
0 c-19 0 -36 -3 -39 -7z"/>
<path d="M25852 533 l3 -277 30 -8 c44 -13 156 -12 190 2 72 28 109 88 109
180 0 144 -107 227 -229 176 l-35 -15 0 110 0 109 -35 0 -35 0 2 -277z m209 7
c48 -26 65 -129 30 -186 -25 -41 -69 -58 -126 -50 l-45 7 0 104 c0 104 0 104
28 119 32 18 85 20 113 6z"/>
<path d="M22856 621 l-69 -70 34 -3 34 -3 1 -118 c2 -91 6 -123 19 -143 23
-35 77 -56 123 -48 58 10 72 21 72 55 0 26 -3 30 -17 24 -10 -4 -34 -9 -54
-12 -60 -9 -69 10 -69 138 l0 109 60 0 60 0 0 30 c0 29 -2 30 -47 31 -27 1
-53 1 -60 0 -7 -1 -13 15 -15 39 l-3 41 -69 -70z"/>
<path d="M23136 621 l-69 -70 34 -3 34 -3 2 -124 c2 -103 5 -127 20 -144 28
-31 79 -49 121 -41 58 10 72 21 72 55 0 26 -3 30 -17 24 -10 -4 -34 -9 -54
-12 -60 -9 -69 10 -69 138 l0 109 60 0 60 0 0 30 c0 32 -2 33 -87 33 -30 0
-32 2 -35 39 l-3 39 -69 -70z"/>
<path d="M23463 612 l-63 -3 0 -279 0 -280 35 0 35 0 0 101 c0 100 0 100 23
93 37 -12 112 -7 144 9 122 63 135 247 23 328 -30 22 -113 35 -197 31z m148
-83 c33 -17 52 -68 46 -123 -8 -84 -74 -124 -164 -100 -22 6 -23 11 -23 118 0
62 3 116 7 120 9 9 111 -2 134 -15z"/>
<path d="M23825 597 c-18 -27 -12 -53 17 -68 27 -15 57 -2 64 28 14 55 -50 87
-81 40z"/>
<path d="M25510 601 c-30 -16 -35 -24 -38 -60 -3 -41 -3 -42 19 -29 12 7 31
19 43 25 11 7 38 13 59 13 33 0 40 -4 51 -32 8 -18 12 -38 9 -44 -3 -7 -33
-22 -68 -34 -102 -34 -144 -94 -111 -159 24 -46 95 -58 157 -25 18 9 29 10 29
4 0 -6 12 -15 27 -21 37 -14 93 11 93 41 0 17 -5 19 -24 14 l-24 -6 -4 129
c-2 90 -8 135 -18 151 -34 51 -135 68 -200 33z m150 -229 c0 -52 -14 -73 -57
-86 -17 -5 -29 -1 -48 18 -33 33 -22 63 35 93 63 34 70 31 70 -25z"/>
<path d="M26484 611 c-48 -21 -67 -82 -43 -134 6 -14 44 -46 85 -72 73 -47 87
-68 62 -93 -18 -18 -74 -14 -118 8 -48 24 -49 24 -45 3 2 -10 4 -28 4 -40 1
-18 11 -25 55 -38 91 -27 176 7 191 76 10 44 -19 85 -94 134 -76 49 -88 67
-64 91 18 18 67 13 115 -12 l28 -15 0 35 c0 26 -6 38 -21 47 -29 15 -129 21
-155 10z"/>
<path d="M26777 612 c-15 -3 -17 -30 -17 -283 l0 -279 35 0 35 0 0 101 c0 100
0 100 23 93 37 -12 112 -7 144 9 96 50 131 188 70 278 -41 60 -66 72 -175 78
-54 3 -106 5 -115 3z m194 -83 c33 -17 52 -68 46 -123 -8 -84 -74 -124 -164
-100 -22 6 -23 11 -23 118 0 62 3 116 7 120 9 9 111 -2 134 -15z"/>
<path d="M27190 601 c-30 -16 -35 -24 -38 -60 -3 -41 -3 -42 19 -29 12 7 31
19 43 25 11 7 38 13 58 13 31 0 40 -5 53 -29 21 -42 11 -57 -48 -77 -79 -25
-114 -50 -127 -90 -14 -42 1 -88 34 -106 28 -15 90 -12 126 7 18 9 30 11 30 5
0 -6 12 -15 27 -21 37 -14 93 11 93 41 0 17 -5 19 -24 14 l-24 -6 -4 129 c-2
90 -8 135 -18 151 -34 51 -135 68 -200 33z m150 -229 c0 -52 -14 -73 -57 -86
-17 -5 -29 -1 -48 18 -33 34 -22 64 35 94 64 32 70 30 70 -26z"/>
<path d="M27610 601 c-65 -35 -99 -96 -99 -176 1 -132 108 -213 243 -185 55
11 56 12 56 47 0 33 -2 35 -26 29 -64 -16 -84 -17 -119 -6 -48 16 -75 60 -75
124 0 41 5 53 34 82 39 39 82 44 143 19 19 -8 36 -15 38 -15 1 0 1 17 0 37 -1
31 -6 39 -30 49 -44 19 -124 16 -165 -5z"/>
<path d="M27985 606 c-128 -56 -131 -286 -5 -351 39 -20 152 -20 195 1 26 12
34 22 37 50 5 39 3 40 -41 18 -40 -20 -120 -23 -153 -6 -27 15 -58 61 -58 86
0 14 18 16 130 16 l130 0 0 33 c0 46 -39 118 -79 144 -39 26 -108 30 -156 9z
m110 -58 c28 -12 60 -62 50 -77 -8 -13 -173 -13 -181 0 -13 22 55 88 93 89 7
0 24 -5 38 -12z"/>
<path d="M23822 318 c-19 -19 -14 -55 10 -72 12 -9 26 -16 30 -16 13 0 48 39
48 54 0 37 -61 61 -88 34z"/>
<path d="M26256 314 c-23 -23 -20 -51 9 -70 23 -15 27 -15 50 0 27 18 31 36
15 67 -13 23 -53 25 -74 3z"/>
</g>
</svg>
